<svg xmlns="http://www.w3.org/2000/svg" viewBox="0 0 512 512" width="512" height="512" fill="none">
  <defs>
    
    <clipPath id="card"><rect x="28" y="28" width="456" height="456" rx="104"></rect></clipPath>
  </defs>

  
  <rect x="10" y="10" width="492" height="492" rx="120" fill="#f6d6df"></rect>
  <rect x="28" y="28" width="456" height="456" rx="104" fill="#fdf4ee"></rect>
  <rect x="40" y="40" width="432" height="432" rx="92" fill="none" stroke="#f4dce4" stroke-width="3"></rect>

  <g clip-path="url(#card)">
    
    <g opacity="0.95">
      <path d="M404 232 l4 -10 4 10 10 4 -10 4 -4 10 -4 -10 -10 -4 z" fill="#f3aecb"></path>
      <path d="M110 360 l3 -8 3 8 8 3 -8 3 -3 8 -3 -8 -8 -3 z" fill="#cdb6ec"></path>
      <g stroke="#f0a8c6" stroke-width="4" stroke-linecap="round"><path d="M138 156 h16 M146 148 v16"></path></g>
      <g stroke="#f3aecb" stroke-width="4" stroke-linecap="round"><path d="M372 150 h16 M380 142 v16"></path></g>
      <circle cx="436" cy="300" r="4" fill="#e99cba"></circle>
      <circle cx="86" cy="250" r="4" fill="#c3a9e6"></circle>
      <path d="M198 112 l3.4 7 7.6 1.1 -5.5 5.4 1.3 7.6 -6.8 -3.6 -6.8 3.6 1.3 -7.6 -5.5 -5.4 7.6 -1.1 z" fill="#bb9fe0"></path>
    </g>

    
    <g transform="translate(256 132)" stroke="#f29bbb" stroke-width="6" stroke-linejoin="round" stroke-linecap="round" fill="none">
      <rect x="-56" y="-20" width="112" height="70" rx="15"></rect>
      <path d="M-28 -20 l8 -13 h26 l8 13"></path>
      <circle cx="0" cy="16" r="21"></circle>
      <rect x="33" y="-10" width="15" height="9" rx="3"></rect>
    </g>
    <path d="M256 140 c-6.5 -7.5 -18 -2 -18 6.6 c0 7.6 10.5 13.2 18 19.8 c7.5 -6.6 18 -12.2 18 -19.8 c0 -8.6 -11.5 -14.1 -18 -6.6 z" fill="#f4a9c5"></path>
    <path d="M192 110 l2.5 -7 2.5 7 7 2.5 -7 2.5 -2.5 7 -2.5 -7 -7 -2.5 z" fill="#f0a8c6"></path>
    <g stroke="#f3aecb" stroke-width="4" stroke-linecap="round"><path d="M322 106 h14 M329 99 v14"></path></g>

    
    <text x="252" y="250" text-anchor="middle" class="wm" font-size="104" fill="#7e64ae">Boothique</text>
    <path d="M150 274 q104 -24 206 2" stroke="#f0a3c0" stroke-width="7" stroke-linecap="round" fill="none"></path>
    <path d="M384 206 l3 -8 3 8 8 3 -8 3 -3 8 -3 -8 -8 -3 z" fill="#f3b0cd"></path>

    
    <g transform="translate(132 416) rotate(-13)">
      <rect x="-52" y="-150" width="104" height="262" rx="13" fill="#fffdfb" stroke="#f0dbe4" stroke-width="3"></rect>
      <rect x="-41" y="-134" width="82" height="74" rx="11" fill="#cdb7ee"></rect>
      <rect x="-41" y="-50" width="82" height="74" rx="11" fill="#c3aee8"></rect>
      <rect x="-41" y="34" width="82" height="74" rx="11" fill="#cdb7ee"></rect>
      <path d="M0 -110 c-7 -9 -21 -3 -21 8 c0 9.5 14 16.5 21 23.5 c7 -7 21 -14 21 -23.5 c0 -11 -14 -17 -21 -8 z" fill="#f6b9cf"></path>
      
      <g transform="translate(0 -13)">
        <ellipse cx="-8" cy="-20" rx="5.5" ry="13" fill="#fffdfb"></ellipse>
        <ellipse cx="8" cy="-20" rx="5.5" ry="13" fill="#fffdfb"></ellipse>
        <circle cx="0" cy="0" r="20" fill="#fffdfb"></circle>
        <circle cx="-7" cy="-2" r="2.4" fill="#9277c9"></circle>
        <circle cx="7" cy="-2" r="2.4" fill="#9277c9"></circle>
        <path d="M-5 6 q5 4 10 0" stroke="#9277c9" stroke-width="2.2" fill="none" stroke-linecap="round"></path>
        <circle cx="-12" cy="4" r="3" fill="#f6b9cf" opacity="0.8"></circle>
        <circle cx="12" cy="4" r="3" fill="#f6b9cf" opacity="0.8"></circle>
      </g>
      
      <g transform="translate(0 71)" fill="#a98fd6">
        <circle cx="0" cy="-14" r="8"></circle><circle cx="13" cy="-4" r="8"></circle><circle cx="8" cy="11" r="8"></circle>
        <circle cx="-8" cy="11" r="8"></circle><circle cx="-13" cy="-4" r="8"></circle>
        <circle cx="0" cy="0" r="6" fill="#fdf4ee"></circle>
      </g>
      
      <g transform="rotate(-6 0 -150)">
        <rect x="-38" y="-164" width="76" height="28" rx="3" fill="#f4b8cf" opacity="0.85"></rect>
        <g stroke="#fff" stroke-width="2" opacity="0.6"><path d="M-26 -164 v28 M-10 -164 v28 M6 -164 v28 M22 -164 v28"></path></g>
      </g>
    </g>

    
    <g transform="translate(256 0)">
      
      <rect x="-148" y="302" width="296" height="56" rx="18" fill="#c3aee8"></rect>
      <rect x="-148" y="302" width="296" height="56" rx="18" fill="none" stroke="#fffdfb" stroke-width="4"></rect>
      <text x="-30" y="340" text-anchor="middle" class="wm" font-size="30" fill="#fdf4ee">찰칵!</text>
      <path d="M92 322 c-5.5 -6.5 -16 -2 -16 5.6 c0 7.2 10 12 16 17.6 c6 -5.6 16 -10.4 16 -17.6 c0 -7.6 -10.5 -12.1 -16 -5.6 z" fill="#fffdfb"></path>
      
      <rect x="-118" y="358" width="236" height="160" fill="#8f74c4"></rect>
      <path d="M-62 376 h124 l14 142 h-152 z" fill="#b89fe2"></path>
      <path d="M-62 376 h124 l14 142 h-152 z" fill="none" stroke="#fffdfb" stroke-width="4"></path>
      <path d="M0 410 c-12 -15 -35 -5 -35 13 c0 16.5 23 27.5 35 39.5 c12 -12 35 -23 35 -39.5 c0 -18 -23 -28 -35 -13 z" fill="none" stroke="#f4a9c5" stroke-width="6.5"></path>
      <g fill="#fff" opacity="0.92">
        <path d="M-46 452 l3 -9 3 9 9 3 -9 3 -3 9 -3 -9 -9 -3 z"></path>
        <path d="M46 448 l2.6 -8 2.6 8 8 2.6 -8 2.6 -2.6 8 -2.6 -8 -8 -2.6 z"></path>
      </g>
      <path d="M22 494 c-4.5 -5.5 -13 -2 -13 4.6 c0 6 9 10 13 14 c4 -4 13 -8 13 -14 c0 -6.6 -8.5 -10.1 -13 -4.6 z" fill="#f6b9cf"></path>
      <g stroke="#f4a9c5" stroke-width="4" stroke-linecap="round" opacity="0.8"><path d="M-28 480 l-15 7 M-26 491 l-13 4"></path></g>
      
      <path d="M-118 358 q33 14 29 102 q-2 52 -29 58 q-7 -84 0 -160 z" fill="#f2a9c1"></path>
      <path d="M118 358 q-33 14 -29 102 q2 52 29 58 q7 -84 0 -160 z" fill="#f2a9c1"></path>
    </g>

    
    <g transform="translate(408 350) rotate(8)">
      <path d="M0 12 c-21 -25 -61 -8 -61 21 c0 27 36 44 61 67 c25 -23 61 -40 61 -67 c0 -29 -40 -46 -61 -21 z" fill="#fff"></path>
      <path d="M0 20 c-17 -20 -50 -6.5 -50 17 c0 22 30 36 50 55 c20 -19 50 -33 50 -55 c0 -23.5 -33 -37 -50 -17 z" fill="#f2a3c0"></path>
      <text x="0" y="40" text-anchor="middle" class="wm" font-size="23" fill="#fffdfb">예쁘게</text>
      <text x="-7" y="66" text-anchor="middle" class="wm" font-size="23" fill="#fffdfb">찍자</text>
      <path d="M20 55 c-3.5 -4.5 -11 -1 -11 3.6 c0 4.6 7 8 11 12 c4 -4 11 -7.4 11 -12 c0 -4.6 -7.5 -8.1 -11 -3.6 z" fill="#fffdfb"></path>
    </g>

    
    <g transform="translate(418 452) rotate(-6)">
      <path d="M0 -40 l10.5 24.7 26.6 1.9 -20 17.1 6.7 25.7 -23.8 -14.3 -23.8 14.3 6.7 -25.7 -20 -17.1 26.6 -1.9 z" fill="#fff"></path>
      <path d="M0 -30 l8.5 20 21 1.5 -16 13.6 5.3 20.3 -18.8 -11.4 -18.8 11.4 5.3 -20.3 -16 -13.6 21 -1.5 z" fill="#a98fd6"></path>
    </g>

    
    <path d="M438 388 c-4.5 -5.5 -13 -2 -13 4.6 c0 5.6 8.5 10.4 13 15 c4.5 -4.6 13 -9.4 13 -15 c0 -6.6 -8.5 -10.1 -13 -4.6 z" fill="#f3aecb"></path>
    <g stroke="#f3aecb" stroke-width="4" stroke-linecap="round"><path d="M86 320 l10 -10 M100 318 l8 -6"></path></g>
  </g>
</svg>